<svg id="visual" viewBox="0 0 960 300" width="960" height="300" xmlns="http://www.w3.org/2000/svg" xmlns:xlink="http://www.w3.org/1999/xlink" version="1.1"><rect x="0" y="0" width="960" height="300" fill="#ebebee"></rect><path d="M0 113L17.8 112.2C35.7 111.3 71.3 109.7 106.8 122.2C142.3 134.7 177.7 161.3 213.2 162.7C248.7 164 284.3 140 320 137.5C355.7 135 391.3 154 426.8 154.5C462.3 155 497.7 137 533.2 134.3C568.7 131.7 604.3 144.3 640 143.5C675.7 142.7 711.3 128.3 746.8 133.7C782.3 139 817.7 164 853.2 176C888.7 188 924.3 187 942.2 186.5L960 186L960 0L942.2 0C924.3 0 888.7 0 853.2 0C817.7 0 782.3 0 746.8 0C711.3 0 675.7 0 640 0C604.3 0 568.7 0 533.2 0C497.7 0 462.3 0 426.8 0C391.3 0 355.7 0 320 0C284.3 0 248.7 0 213.2 0C177.7 0 142.3 0 106.8 0C71.3 0 35.7 0 17.8 0L0 0Z" fill="#00f260"></path><path d="M0 127L17.8 128.5C35.7 130 71.3 133 106.8 136.8C142.3 140.7 177.7 145.3 213.2 139.2C248.7 133 284.3 116 320 116.3C355.7 116.7 391.3 134.3 426.8 137.7C462.3 141 497.7 130 533.2 123.7C568.7 117.3 604.3 115.7 640 110.2C675.7 104.7 711.3 95.3 746.8 100.5C782.3 105.7 817.7 125.3 853.2 130.8C888.7 136.3 924.3 127.7 942.2 123.3L960 119L960 0L942.2 0C924.3 0 888.7 0 853.2 0C817.7 0 782.3 0 746.8 0C711.3 0 675.7 0 640 0C604.3 0 568.7 0 533.2 0C497.7 0 462.3 0 426.8 0C391.3 0 355.7 0 320 0C284.3 0 248.7 0 213.2 0C177.7 0 142.3 0 106.8 0C71.3 0 35.7 0 17.8 0L0 0Z" fill="#00e2d8"></path><path d="M0 76L17.8 80.7C35.7 85.3 71.3 94.7 106.8 102.5C142.3 110.3 177.7 116.7 213.2 113.3C248.7 110 284.3 97 320 95.7C355.7 94.3 391.3 104.7 426.8 103.2C462.3 101.7 497.7 88.3 533.2 88.5C568.7 88.7 604.3 102.3 640 100.8C675.7 99.3 711.3 82.7 746.8 84.8C782.3 87 817.7 108 853.2 116.7C888.7 125.3 924.3 121.7 942.2 119.8L960 118L960 0L942.2 0C924.3 0 888.7 0 853.2 0C817.7 0 782.3 0 746.8 0C711.3 0 675.7 0 640 0C604.3 0 568.7 0 533.2 0C497.7 0 462.3 0 426.8 0C391.3 0 355.7 0 320 0C284.3 0 248.7 0 213.2 0C177.7 0 142.3 0 106.8 0C71.3 0 35.7 0 17.8 0L0 0Z" fill="#00c3f4"></path><path d="M0 60L17.8 61.2C35.7 62.3 71.3 64.7 106.8 63.3C142.3 62 177.7 57 213.2 56.5C248.7 56 284.3 60 320 63.3C355.7 66.7 391.3 69.3 426.8 65.7C462.3 62 497.7 52 533.2 46.7C568.7 41.3 604.3 40.7 640 43.7C675.7 46.7 711.3 53.3 746.8 54.8C782.3 56.3 817.7 52.7 853.2 55.5C888.7 58.3 924.3 67.7 942.2 72.3L960 77L960 0L942.2 0C924.3 0 888.7 0 853.2 0C817.7 0 782.3 0 746.8 0C711.3 0 675.7 0 640 0C604.3 0 568.7 0 533.2 0C497.7 0 462.3 0 426.8 0C391.3 0 355.7 0 320 0C284.3 0 248.7 0 213.2 0C177.7 0 142.3 0 106.8 0C71.3 0 35.7 0 17.8 0L0 0Z" fill="#009ff4"></path><path d="M0 47L17.8 45.8C35.7 44.7 71.3 42.3 106.8 42.8C142.3 43.3 177.7 46.7 213.2 46.7C248.7 46.7 284.3 43.3 320 43.7C355.7 44 391.3 48 426.8 48.7C462.3 49.3 497.7 46.7 533.2 46.8C568.7 47 604.3 50 640 46.8C675.7 43.7 711.3 34.3 746.8 28.2C782.3 22 817.7 19 853.2 20.5C888.7 22 924.3 28 942.2 31L960 34L960 0L942.2 0C924.3 0 888.7 0 853.2 0C817.7 0 782.3 0 746.8 0C711.3 0 675.7 0 640 0C604.3 0 568.7 0 533.2 0C497.7 0 462.3 0 426.8 0C391.3 0 355.7 0 320 0C284.3 0 248.7 0 213.2 0C177.7 0 142.3 0 106.8 0C71.3 0 35.7 0 17.8 0L0 0Z" fill="#0575e6"></path></svg>