<svg id="visual" viewBox="0 0 960 300" width="960" height="300" xmlns="http://www.w3.org/2000/svg" xmlns:xlink="http://www.w3.org/1999/xlink" version="1.1"><rect x="0" y="0" width="960" height="300" fill="#ebebee"></rect><path d="M0 185L17.8 185.8C35.7 186.7 71.3 188.3 106.8 175.8C142.3 163.3 177.7 136.7 213.2 135.3C248.7 134 284.3 158 320 160.5C355.7 163 391.3 144 426.8 143.5C462.3 143 497.7 161 533.2 163.7C568.7 166.3 604.3 153.7 640 154.5C675.7 155.3 711.3 169.7 746.8 164.3C782.3 159 817.7 134 853.2 122C888.7 110 924.3 111 942.2 111.5L960 112L960 301L942.2 301C924.3 301 888.7 301 853.2 301C817.7 301 782.3 301 746.8 301C711.3 301 675.7 301 640 301C604.3 301 568.7 301 533.2 301C497.7 301 462.3 301 426.8 301C391.3 301 355.7 301 320 301C284.3 301 248.7 301 213.2 301C177.7 301 142.3 301 106.8 301C71.3 301 35.7 301 17.8 301L0 301Z" fill="#00f260"></path><path d="M0 171L17.8 169.5C35.7 168 71.3 165 106.8 161.2C142.3 157.3 177.7 152.7 213.2 158.8C248.7 165 284.3 182 320 181.7C355.7 181.3 391.3 163.7 426.8 160.3C462.3 157 497.7 168 533.2 174.3C568.7 180.7 604.3 182.3 640 187.8C675.7 193.3 711.3 202.7 746.8 197.5C782.3 192.3 817.7 172.7 853.2 167.2C888.7 161.7 924.3 170.3 942.2 174.7L960 179L960 301L942.2 301C924.3 301 888.7 301 853.2 301C817.7 301 782.3 301 746.8 301C711.3 301 675.7 301 640 301C604.3 301 568.7 301 533.2 301C497.7 301 462.3 301 426.8 301C391.3 301 355.7 301 320 301C284.3 301 248.7 301 213.2 301C177.7 301 142.3 301 106.8 301C71.3 301 35.7 301 17.8 301L0 301Z" fill="#00e2d8"></path><path d="M0 222L17.8 217.3C35.7 212.7 71.3 203.3 106.8 195.5C142.3 187.7 177.7 181.3 213.2 184.7C248.7 188 284.3 201 320 202.3C355.7 203.7 391.3 193.3 426.8 194.8C462.3 196.3 497.7 209.7 533.2 209.5C568.7 209.3 604.3 195.7 640 197.2C675.7 198.7 711.3 215.3 746.8 213.2C782.3 211 817.7 190 853.2 181.3C888.7 172.7 924.3 176.3 942.2 178.2L960 180L960 301L942.2 301C924.3 301 888.7 301 853.2 301C817.7 301 782.3 301 746.8 301C711.3 301 675.7 301 640 301C604.3 301 568.7 301 533.2 301C497.7 301 462.3 301 426.8 301C391.3 301 355.7 301 320 301C284.3 301 248.7 301 213.2 301C177.7 301 142.3 301 106.8 301C71.3 301 35.7 301 17.8 301L0 301Z" fill="#00c3f4"></path><path d="M0 238L17.8 236.8C35.7 235.7 71.3 233.3 106.8 234.7C142.3 236 177.7 241 213.2 241.5C248.7 242 284.3 238 320 234.7C355.7 231.3 391.3 228.7 426.8 232.3C462.3 236 497.7 246 533.2 251.3C568.7 256.7 604.3 257.3 640 254.3C675.7 251.3 711.3 244.7 746.8 243.2C782.3 241.7 817.7 245.3 853.2 242.5C888.7 239.7 924.3 230.3 942.2 225.7L960 221L960 301L942.2 301C924.3 301 888.7 301 853.2 301C817.7 301 782.3 301 746.8 301C711.3 301 675.7 301 640 301C604.3 301 568.7 301 533.2 301C497.7 301 462.3 301 426.8 301C391.3 301 355.7 301 320 301C284.3 301 248.7 301 213.2 301C177.7 301 142.3 301 106.8 301C71.3 301 35.7 301 17.8 301L0 301Z" fill="#009ff4"></path><path d="M0 251L17.8 252.2C35.7 253.3 71.3 255.7 106.8 255.2C142.3 254.7 177.7 251.3 213.2 251.3C248.7 251.3 284.3 254.7 320 254.3C355.7 254 391.3 250 426.8 249.3C462.3 248.7 497.7 251.3 533.2 251.2C568.7 251 604.3 248 640 251.2C675.7 254.3 711.3 263.7 746.8 269.8C782.3 276 817.7 279 853.2 277.5C888.7 276 924.3 270 942.2 267L960 264L960 301L942.2 301C924.3 301 888.7 301 853.2 301C817.7 301 782.3 301 746.8 301C711.3 301 675.7 301 640 301C604.3 301 568.7 301 533.2 301C497.7 301 462.3 301 426.8 301C391.3 301 355.7 301 320 301C284.3 301 248.7 301 213.2 301C177.7 301 142.3 301 106.8 301C71.3 301 35.7 301 17.8 301L0 301Z" fill="#0575e6"></path></svg>